<?xml version="1.0" standalone="no"?>
<!DOCTYPE svg PUBLIC "-//W3C//DTD SVG 20010904//EN"
 "http://www.w3.org/TR/2001/REC-SVG-20010904/DTD/svg10.dtd">
<svg version="1.0" xmlns="http://www.w3.org/2000/svg"
 width="1024.000000pt" height="1024.000000pt" viewBox="0 0 1024.000000 1024.000000"
 preserveAspectRatio="xMidYMid meet">
<metadata>
Created by potrace 1.11, written by Peter Selinger 2001-2013
</metadata>
<g transform="translate(0.000000,1024.000000) scale(0.100000,-0.100000)"
fill="#000000" stroke="none">
<path d="M2548 9545 c-2 -1 -32 -5 -68 -8 -101 -10 -161 -17 -216 -28 -28 -5
-64 -12 -80 -14 -53 -9 -129 -28 -144 -35 -8 -5 -28 -10 -45 -13 -41 -7 -222
-76 -328 -126 -49 -22 -93 -41 -98 -41 -5 0 -9 -4 -9 -10 0 -5 -4 -10 -10 -10
-12 0 -169 -92 -235 -139 -56 -38 -157 -113 -165 -121 -3 -3 -27 -23 -55 -45
-140 -113 -294 -269 -418 -425 -108 -135 -137 -175 -137 -190 0 -5 -3 -10 -8
-10 -4 0 -16 -17 -27 -37 -11 -20 -24 -42 -30 -48 -22 -24 -131 -236 -179
-350 -43 -101 -121 -331 -130 -385 -3 -19 -10 -51 -16 -70 -6 -19 -19 -89 -30
-155 -18 -112 -24 -165 -35 -305 -7 -83 -7 -335 -1 -420 6 -72 18 -200 21
-210 1 -3 5 -30 9 -60 36 -255 149 -579 292 -839 26 -46 158 -249 186 -285
118 -152 201 -245 418 -469 223 -231 672 -695 750 -777 25 -26 151 -156 280
-290 129 -134 258 -266 285 -295 28 -28 153 -158 278 -288 126 -130 249 -258
274 -284 25 -26 150 -155 277 -287 127 -131 256 -264 286 -296 30 -31 152
-157 270 -280 118 -122 244 -253 280 -290 36 -37 165 -170 286 -296 122 -126
266 -276 320 -332 197 -207 329 -279 519 -286 61 -3 200 14 200 24 0 1 7 3 16
5 34 6 132 59 187 100 31 24 106 94 166 157 60 62 204 211 320 331 116 121
242 251 280 290 38 40 168 175 290 301 121 126 239 248 261 271 22 23 146 151
275 285 129 134 258 266 285 295 28 29 156 162 285 295 129 134 253 262 275
285 22 23 146 151 275 285 129 134 255 264 280 290 25 26 104 107 175 181 72
74 238 247 370 384 132 137 260 269 285 295 88 90 231 249 272 301 24 30 45
56 49 59 4 3 45 61 91 130 213 315 355 668 409 1011 6 41 13 81 14 89 22 116
34 476 21 610 -2 19 -7 73 -11 120 -3 47 -13 122 -21 168 -8 45 -17 99 -20
120 -14 88 -113 420 -143 480 -5 9 -13 28 -19 42 -74 178 -235 457 -326 565
-14 17 -29 35 -33 40 -25 31 -101 123 -118 141 -230 242 -343 342 -547 480
-136 92 -336 198 -458 244 -19 7 -53 21 -76 31 -43 19 -265 83 -324 93 -19 3
-45 8 -56 10 -25 5 -81 14 -126 21 -181 26 -484 26 -688 0 -19 -3 -55 -7 -80
-10 -125 -16 -451 -97 -525 -130 -16 -7 -59 -24 -95 -36 -140 -50 -419 -202
-580 -316 -140 -100 -284 -228 -543 -483 l-270 -266 -231 230 c-289 289 -350
346 -466 436 -25 19 -47 37 -50 41 -7 8 -190 131 -219 147 -13 7 -49 28 -80
46 -114 70 -412 203 -494 221 -10 2 -55 15 -100 29 -82 25 -141 40 -207 51
-19 3 -53 10 -75 15 -45 9 -109 18 -260 35 -57 6 -402 15 -407 10z m2037
-2613 c245 -41 391 -101 666 -273 131 -82 325 -189 344 -190 2 0 28 -10 57
-23 61 -27 232 -83 277 -91 17 -3 59 -12 93 -20 35 -7 92 -17 128 -20 36 -3
76 -8 90 -10 14 -2 112 -7 219 -10 107 -3 198 -8 201 -10 4 -3 25 -7 46 -9 52
-7 183 -50 244 -81 119 -60 233 -150 311 -244 24 -29 49 -59 56 -66 12 -13 47
-71 69 -115 32 -65 45 -101 66 -180 l23 -85 0 -1065 c0 -1011 -1 -1066 -18
-1092 -40 -59 -134 -72 -191 -27 -13 10 -48 63 -77 117 -28 53 -65 122 -82
152 -16 30 -41 78 -56 105 -14 28 -30 53 -36 57 -5 4 -6 8 -1 8 5 0 4 6 -2 13
-5 6 -21 32 -34 57 -13 25 -97 180 -186 346 l-163 301 -37 -3 c-20 -1 -109 -5
-197 -8 -88 -4 -169 -9 -180 -11 -11 -2 -38 -6 -60 -9 -141 -17 -363 -80 -530
-151 -106 -45 -282 -135 -327 -166 -14 -11 -29 -19 -32 -19 -3 0 -36 -19 -73
-41 -90 -56 -195 -110 -265 -138 -37 -15 -58 -29 -59 -40 0 -9 0 -122 0 -252
0 -259 -4 -281 -62 -323 -24 -18 -44 -21 -130 -22 -130 -1 -171 18 -194 91 -5
17 -9 121 -9 232 l1 201 -120 0 c-135 0 -195 5 -334 32 -29 5 -57 10 -62 10
-4 0 -7 -103 -7 -228 0 -126 -3 -239 -7 -253 -19 -62 -64 -84 -179 -87 -73 -2
-96 1 -132 19 -24 11 -50 31 -57 42 -9 16 -12 109 -13 344 -1 233 -4 326 -13
336 -6 8 -25 20 -41 27 -17 7 -30 16 -30 21 0 5 -5 9 -11 9 -6 0 -24 10 -39
23 -15 12 -43 33 -62 46 -82 60 -318 317 -318 346 0 4 -11 21 -24 38 -53 69
-165 311 -182 392 -3 17 -12 50 -19 75 -8 25 -16 62 -19 83 -4 20 -8 52 -11
70 -12 84 -17 188 -14 332 1 18 9 78 24 180 28 193 138 465 253 629 81 115
213 241 352 334 221 148 447 250 615 278 11 1 31 5 45 8 14 3 52 9 85 12 33 4
61 8 63 9 8 7 313 -4 367 -13z"/>
<path d="M6492 5560 c-74 -28 -122 -99 -122 -180 0 -172 212 -257 334 -134 51
52 66 124 41 199 -36 106 -146 156 -253 115z"/>
<path d="M7173 4707 c-55 -49 -153 -113 -222 -145 -60 -28 -60 -28 -46 -55 29
-56 50 -93 64 -109 8 -10 11 -18 8 -18 -4 0 9 -26 27 -57 27 -47 132 -234 201
-361 10 -19 13 51 12 378 0 220 -2 400 -3 400 -2 0 -21 -15 -41 -33z"/>
</g>
</svg>
